<?xml version="1.0" standalone="no"?>
<!DOCTYPE svg PUBLIC "-//W3C//DTD SVG 20010904//EN"
 "http://www.w3.org/TR/2001/REC-SVG-20010904/DTD/svg10.dtd">
<svg version="1.0" xmlns="http://www.w3.org/2000/svg"
 width="502.000000pt" height="502.000000pt" viewBox="0 0 502.000000 502.000000"
 preserveAspectRatio="xMidYMid meet">

<g transform="translate(0.000000,502.000000) scale(0.100000,-0.100000)"
fill="#000000" stroke="none">
<path d="M0 2510 l0 -2510 2510 0 2510 0 0 2510 0 2510 -2510 0 -2510 0 0
-2510z m2772 1919 c125 -15 337 -70 461 -120 567 -227 1004 -719 1157 -1302
62 -235 81 -515 52 -747 -84 -649 -489 -1214 -1076 -1499 -146 -71 -230 -102
-384 -140 -166 -42 -283 -55 -472 -55 -263 0 -490 45 -729 142 -636 259 -1088
838 -1188 1520 -22 152 -22 419 1 562 85 548 396 1036 847 1332 293 192 565
284 954 322 61 6 274 -2 377 -15z"/>
<path d="M2330 4330 c-551 -64 -1035 -356 -1335 -805 -451 -676 -410 -1554
103 -2180 92 -112 96 -116 202 -208 201 -175 370 -275 605 -359 791 -283 1679
18 2142 724 353 538 399 1203 122 1786 -252 532 -740 909 -1319 1018 -141 27
-395 39 -520 24z m475 -70 c381 -61 711 -235 991 -522 503 -516 640 -1297 345
-1960 -172 -383 -490 -708 -870 -886 -665 -311 -1462 -180 -1985 327 -338 329
-519 723 -551 1206 -7 109 9 302 36 438 94 470 400 907 809 1157 375 228 789
310 1225 240z"/>
<path d="M2323 4240 c-330 -42 -646 -174 -898 -374 -97 -77 -255 -245 -327
-347 -459 -645 -432 -1499 69 -2119 358 -443 956 -691 1518 -631 1100 119
1816 1188 1499 2239 -189 624 -714 1094 -1356 1212 -129 24 -390 34 -505 20z
m197 -145 c0 -8 -11 -17 -25 -21 l-25 -6 2 -162 3 -161 60 0 c59 0 59 0 66 33
15 76 52 65 47 -14 l-3 -49 -147 -3 c-127 -2 -148 0 -148 13 0 8 9 15 19 15
23 0 28 12 26 70 -1 25 -2 93 -3 153 -1 78 -5 107 -14 107 -22 0 -41 17 -34
29 4 7 40 11 92 11 67 0 84 -3 84 -15z m467 -59 c71 -24 84 -39 38 -44 -30 -3
-32 -6 -78 -145 -26 -79 -47 -148 -47 -154 0 -6 23 -19 52 -29 50 -16 53 -16
63 1 24 42 40 55 54 46 13 -8 13 -15 2 -49 -8 -22 -17 -45 -20 -51 -9 -14
-288 79 -283 94 2 6 14 9 27 8 22 -1 27 9 74 150 28 84 51 155 51 158 0 4 -9
9 -20 12 -11 3 -20 13 -20 22 0 18 -4 19 107 -19z m-912 -42 c38 -18 84 -77
103 -133 49 -144 -68 -284 -210 -250 -121 28 -193 190 -137 306 44 92 146 124
244 77z m1377 -190 c35 -25 64 -49 66 -54 5 -14 -19 -23 -31 -11 -6 6 -14 11
-18 11 -7 0 -133 -169 -174 -233 -17 -26 -17 -28 0 -47 16 -17 16 -20 2 -25
-16 -7 -147 81 -147 98 0 5 15 7 33 3 31 -6 33 -4 124 122 80 112 89 129 77
143 -16 18 -18 39 -4 39 5 0 38 -21 72 -46z m-1854 -110 c24 -27 28 -58 13
-97 -9 -24 -8 -25 24 -24 22 1 52 -10 85 -31 43 -27 54 -30 70 -20 14 9 23 9
30 2 8 -8 3 -20 -19 -41 -45 -45 -62 -46 -128 -2 -65 43 -90 48 -123 21 l-22
-18 49 -53 c45 -50 51 -53 72 -42 15 8 27 9 33 3 9 -9 -105 -122 -123 -122
-13 0 -11 24 2 37 13 13 -41 80 -150 188 -55 54 -63 58 -82 47 -11 -7 -25 -10
-30 -6 -16 9 128 152 176 175 49 24 92 18 123 -17z m2146 -152 c14 -21 26 -45
26 -54 0 -9 -20 -75 -45 -146 -25 -71 -45 -134 -45 -141 0 -6 40 16 89 50 l90
62 -15 28 c-18 35 -18 39 1 39 19 0 89 -105 80 -120 -5 -8 -13 -6 -26 6 -22
20 -24 18 -207 -113 -56 -41 -107 -71 -112 -68 -17 11 -11 37 45 205 30 90 55
166 55 168 0 2 -30 -18 -67 -44 -38 -26 -85 -59 -106 -73 -26 -17 -36 -30 -31
-40 13 -32 16 -61 6 -61 -10 0 -92 111 -92 124 0 11 24 6 40 -9 15 -13 29 -6
141 72 68 48 127 91 131 97 4 5 3 17 -2 27 -9 16 -4 29 10 29 4 0 19 -17 34
-38z m-2544 -218 c42 -17 45 -21 31 -43 -8 -12 -16 -13 -45 -4 -35 11 -37 10
-51 -17 -8 -16 -15 -33 -15 -38 0 -5 65 -40 145 -77 l144 -68 19 23 c10 13 24
20 30 16 8 -5 -2 -34 -31 -91 -42 -85 -65 -104 -59 -49 3 29 -2 32 -120 91
-166 82 -163 81 -184 42 -17 -34 -15 -40 34 -68 14 -8 6 -41 -9 -41 -12 0 -89
39 -89 45 0 16 141 295 149 295 6 0 29 -7 51 -16z m2818 -160 c3 -27 -2 -33
-31 -48 -19 -9 -42 -16 -51 -16 -30 0 -96 32 -96 47 0 11 5 13 18 8 46 -20 67
-17 84 15 14 25 23 31 45 28 23 -2 29 -8 31 -34z m-1682 -141 c-13 -48 -28
-141 -41 -268 -22 -209 -27 -191 50 -204 69 -12 203 -57 220 -74 7 -6 -4 -7
-30 -3 -22 3 -89 9 -149 13 l-109 6 6 -112 c3 -66 2 -109 -4 -106 -11 7 -59
163 -59 193 0 12 -6 22 -12 23 -7 0 -55 0 -105 -1 -51 -1 -93 3 -93 7 0 17 60
163 96 234 49 100 111 193 168 257 49 53 71 66 62 35z m-307 -336 c-30 -66
-30 -66 -85 -77 -29 -6 -56 -16 -59 -21 -4 -5 6 -25 21 -45 21 -27 25 -37 15
-44 -8 -4 -10 -13 -6 -20 6 -9 9 -9 16 1 7 11 9 11 9 1 0 -7 -7 -15 -16 -19
-13 -5 -15 -15 -9 -50 4 -28 3 -43 -3 -39 -5 3 -12 -11 -14 -32 -6 -41 -1 -53
11 -34 13 21 31 -9 20 -33 -9 -18 -9 -18 -5 3 2 12 0 22 -5 22 -5 0 -9 -5 -9
-11 0 -5 -4 -8 -9 -5 -15 10 -34 -22 -27 -47 6 -27 -22 -51 -45 -36 -12 7 -12
9 1 9 13 0 13 1 0 10 -8 5 -10 10 -5 10 6 0 16 -5 23 -12 9 -9 12 -8 12 4 0
22 -22 28 -45 12 -10 -8 -15 -14 -11 -14 5 0 3 -6 -3 -14 -10 -12 -8 -15 11
-18 13 -2 19 -6 13 -9 -5 -4 -21 -3 -34 2 -19 8 -21 12 -11 24 6 8 8 19 4 26
-4 8 -11 3 -18 -13 -10 -23 -14 -24 -45 -16 -27 8 -32 12 -20 19 11 8 9 9 -6
5 -47 -13 -382 144 -342 160 10 3 35 4 57 0 37 -6 64 8 44 23 -5 3 -26 26 -47
49 -37 42 -38 45 -20 60 74 67 295 165 454 201 84 19 210 40 217 36 1 -1 -12
-32 -29 -68z m329 53 c-14 -22 -24 -19 -15 5 4 8 11 15 17 15 6 0 6 -7 -2 -20z
m199 -11 c35 -6 62 -13 60 -15 -2 -2 -42 2 -88 10 -46 8 -73 14 -60 15 13 1
53 -4 88 -10z m-69 -76 c-15 -2 -42 -2 -60 0 -18 2 -6 4 27 4 33 0 48 -2 33
-4z m85 -10 c-7 -2 -19 -2 -25 0 -7 3 -2 5 12 5 14 0 19 -2 13 -5z m-1482
-222 c35 -36 37 -61 6 -97 -48 -55 -127 -25 -127 47 0 29 6 42 26 58 36 28 60
26 95 -8z m2952 2 c24 -22 23 -85 -3 -108 -29 -27 -80 -22 -107 10 -31 35 -29
61 7 97 25 24 36 29 58 23 15 -3 35 -14 45 -22z m-2084 -76 c-5 -20 -12 -37
-15 -37 -6 0 5 59 13 73 11 18 12 -1 2 -36z m91 -77 c12 -7 10 -9 -8 -7 -12 0
-22 5 -22 9 0 11 12 10 30 -2z m-151 -31 c-19 -12 -24 -2 -8 17 9 11 14 13 17
4 3 -7 -2 -16 -9 -21z m45 -810 c9 -8 -38 -89 -52 -89 -23 0 -29 23 -14 53 15
30 14 31 -14 53 -23 19 -31 21 -41 11 -25 -26 -173 -242 -173 -253 0 -6 7 -17
15 -24 17 -15 20 -30 4 -30 -6 0 -44 23 -85 52 -49 34 -71 55 -64 62 6 6 18 6
34 -2 24 -11 28 -7 116 117 49 71 90 133 90 138 0 5 -13 16 -28 25 -28 16 -29
16 -53 -8 -16 -16 -31 -22 -42 -18 -24 9 -21 20 14 64 l31 38 127 -90 c69 -50
130 -94 135 -99z m1435 -18 c125 -92 152 -108 176 -104 42 9 28 -10 -45 -61
-40 -28 -68 -42 -74 -36 -6 6 -3 17 8 28 16 18 15 20 -18 46 l-35 26 -51 -36
c-52 -38 -56 -46 -40 -89 7 -19 16 -25 32 -23 40 5 33 -16 -16 -51 -35 -25
-50 -31 -59 -22 -8 8 -6 14 8 25 18 13 18 18 -24 167 -23 85 -46 167 -52 183
-10 32 2 56 28 56 9 0 81 -49 162 -109z m-402 -58 c2 -6 -5 -14 -16 -18 -27
-8 -27 -15 14 -196 19 -85 35 -157 35 -161 0 -5 -9 -8 -21 -8 -19 0 -81 51
-226 184 -29 27 -56 46 -59 43 -6 -5 13 -105 37 -199 9 -35 13 -38 44 -38 24
0 35 -5 35 -14 0 -15 -126 -50 -142 -40 -14 9 -9 22 12 29 26 8 26 15 -12 182
-30 136 -32 142 -57 145 -43 5 -30 22 27 36 l53 13 119 -105 c65 -59 121 -106
124 -106 3 0 4 6 1 13 -2 6 -13 55 -25 108 l-21 97 -31 -2 c-54 -2 -42 21 19
37 65 17 85 17 90 0z m-776 -14 c55 -12 61 -31 13 -39 -28 -5 -29 -8 -53 -126
-21 -103 -23 -125 -12 -151 28 -68 125 -69 161 -2 6 11 21 69 34 129 23 109
21 130 -11 130 -7 0 -13 7 -13 15 0 18 8 18 79 1 61 -14 81 -36 33 -36 -29 0
-29 0 -52 -107 -39 -191 -68 -228 -176 -221 -78 5 -114 28 -133 87 -12 38 -11
54 13 169 26 127 26 127 6 141 -11 7 -20 18 -20 23 0 11 37 7 131 -13z"/>
<path d="M1913 3956 c-25 -22 -28 -30 -27 -83 2 -74 38 -157 88 -201 39 -34
51 -37 90 -22 38 14 58 62 50 118 -15 101 -93 212 -149 212 -13 0 -37 -11 -52
-24z"/>
<path d="M1443 3648 c-18 -13 -33 -28 -33 -33 0 -6 22 -33 50 -60 43 -42 51
-47 65 -35 49 41 50 101 3 134 -30 21 -47 20 -85 -6z"/>
<path d="M2186 2712 c-13 -26 -56 -133 -56 -140 0 -2 16 -2 35 0 l36 3 4 83
c2 45 2 82 0 82 -3 0 -11 -13 -19 -28z"/>
<path d="M1978 2723 c7 -3 16 -2 19 1 4 3 -2 6 -13 5 -11 0 -14 -3 -6 -6z"/>
<path d="M1575 2526 c-35 -54 36 -116 77 -66 22 27 23 54 2 74 -23 24 -61 20
-79 -8z"/>
<path d="M1784 2535 c16 -44 26 -111 20 -139 -8 -40 -41 -97 -65 -114 -10 -7
-19 -17 -19 -23 0 -29 85 15 116 60 34 50 32 120 -4 180 -28 46 -62 70 -48 36z"/>
<path d="M1871 2345 c0 -12 -6 -26 -12 -32 -6 -6 -9 -17 -6 -25 6 -18 29 41
24 61 -3 11 -5 10 -6 -4z"/>
<path d="M1585 2270 c3 -5 8 -10 11 -10 2 0 4 5 4 10 0 6 -5 10 -11 10 -5 0
-7 -4 -4 -10z"/>
<path d="M1798 2253 c7 -3 16 -2 19 1 4 3 -2 6 -13 5 -11 0 -14 -3 -6 -6z"/>
<path d="M1730 2220 c0 -5 5 -10 11 -10 5 0 7 5 4 10 -3 6 -8 10 -11 10 -2 0
-4 -4 -4 -10z"/>
<path d="M3233 1415 c26 -92 42 -135 49 -135 11 0 78 43 78 51 0 3 -15 16 -32
29 -18 13 -48 35 -67 49 -30 23 -33 24 -28 6z"/>
</g>
</svg>
